<svg width="25" height="24" viewBox="0 0 25 24" fill="none" xmlns="http://www.w3.org/2000/svg">
<path d="M7.14766 24C5.86466 24 4.79566 23.038 4.66166 21.761L2.89766 5H0.847656C0.571656 5 0.347656 4.776 0.347656 4.5C0.347656 4.224 0.571656 4 0.847656 4H7.34766V1.5C7.34766 0.673 8.02066 0 8.84766 0H15.8477C16.6747 0 17.3477 0.673 17.3477 1.5V4H23.8477C24.1237 4 24.3477 4.224 24.3477 4.5C24.3477 4.776 24.1237 5 23.8477 5H21.7977L20.0327 21.761C19.8987 23.037 18.8307 24 17.5477 24H7.14766ZM5.65566 21.657C5.73666 22.423 6.37766 23 7.14766 23H17.5477C18.3167 23 18.9577 22.422 19.0387 21.657L20.7927 5H3.90266L5.65566 21.657ZM16.3477 4V1.5C16.3477 1.224 16.1237 1 15.8477 1H8.84766C8.57166 1 8.34766 1.224 8.34766 1.5V4H16.3477Z" fill="#FB4B56"/>
<path d="M12.3477 20C12.0717 20 11.8477 19.776 11.8477 19.5V9C11.8477 8.724 12.0717 8.5 12.3477 8.5C12.6237 8.5 12.8477 8.724 12.8477 9V19.5C12.8477 19.776 12.6237 20 12.3477 20Z" fill="#FB4B56"/>
<path d="M16.3207 19.999C16.0477 19.986 15.8347 19.751 15.8477 19.476L16.3477 8.976C16.3607 8.709 16.5847 8.5 16.8577 8.5C17.0047 8.507 17.1277 8.565 17.2177 8.663C17.3077 8.761 17.3537 8.89 17.3477 9.024L16.8477 19.524C16.8347 19.791 16.6157 20 16.3477 20C16.3427 20 16.3257 20 16.3207 19.999Z" fill="#FB4B56"/>
<path d="M8.34765 20C8.08065 20 7.86165 19.791 7.84865 19.524L7.34765 9.024C7.33565 8.748 7.54865 8.514 7.82365 8.5H7.82465C8.11365 8.5 8.33365 8.709 8.34765 8.976L8.84765 19.476C8.86065 19.752 8.64665 19.986 8.37165 19.999C8.36765 20 8.35165 20 8.34765 20Z" fill="#FB4B56"/>
</svg>
