<svg width="24" height="24" viewBox="0 0 24 24" fill="none" xmlns="http://www.w3.org/2000/svg">
<path d="M1.5 24C0.673 24 0 23.327 0 22.5V3.5C0 2.673 0.673 2 1.5 2H14.5C14.775 2 15 2.224 15 2.5C15 2.776 14.775 3 14.5 3H1.5C1.224 3 1 3.224 1 3.5V22.5C1 22.776 1.224 23 1.5 23H18.5C18.776 23 19 22.776 19 22.5V11.5C19 11.224 19.224 11 19.5 11C19.776 11 20 11.224 20 11.5V22.5C20 23.327 19.327 24 18.5 24H1.5Z" fill="#3E3F42"/>
<path d="M7.87502 16.627C7.74102 16.627 7.61602 16.575 7.52102 16.481C7.37602 16.336 7.33402 16.12 7.41502 15.931L9.53402 10.986C9.55502 10.936 9.58402 10.892 9.61902 10.851C9.62602 10.841 9.63402 10.833 9.64202 10.825L18.471 1.997C18.479 1.988 18.487 1.979 18.496 1.972C18.498 1.97 20.32 0.149 20.32 0.149C20.415 0.052 20.54 0 20.674 0C20.808 0 20.933 0.052 21.028 0.146L23.856 2.974C24.051 3.169 24.051 3.486 23.856 3.681L13.177 14.361C13.132 14.406 13.079 14.442 13.02 14.467L8.07202 16.587C8.00902 16.613 7.94302 16.627 7.87502 16.627ZM8.82602 15.175L11.948 13.838L10.164 12.053L8.82602 15.175ZM12.824 13.3L20.959 5.164L18.838 3.043L10.703 11.178L12.824 13.3ZM21.666 4.457L22.794 3.328L20.673 1.207L19.544 2.335L21.666 4.457Z" fill="#3E3F42"/>
</svg>
