<svg xmlns="http://www.w3.org/2000/svg" viewBox="0 0 399.232 90.431">
  <title>Lodgly</title>
  <path d="M21.213,0,42.426,21.214,21.213,42.428,0,21.214Z" style="fill: #fab52c;fill-rule: evenodd"/>
  <path d="M69.213,0,90.426,21.214,69.213,42.428,48,21.214Z" style="fill: #fa4b57;fill-rule: evenodd"/>
  <polygon points="117.803 41.681 90.263 69.221 90.423 69.221 69.213 90.431 61.863 83.081 61.713 83.231 41.463 62.831 40.653 62.021 20.403 41.611 41.463 20.401 61.713 40.801 62.523 41.611 69.113 48.251 96.743 20.621 117.803 41.681" style="fill: #fa4b57;fill-rule: evenodd"/>
  <path d="M117.213,0l21.213,21.214L117.213,42.428,96,21.214Z" style="fill: #fab52c;fill-rule: evenodd"/>
  <g style="isolation: isolate; fill: #fab52c">
    <path d="M185.049,66.211a3.7,3.7,0,0,1-2.72,1.12,3.566,3.566,0,0,1-2.68-1.12,3.772,3.772,0,0,1-1.08-2.72V11.971a3.824,3.824,0,0,1,3.84-3.84,3.576,3.576,0,0,1,2.68,1.12,3.777,3.777,0,0,1,1.08,2.72v51.52A3.7,3.7,0,0,1,185.049,66.211Z"/>
    <path d="M234.249,57.571a20.337,20.337,0,0,1-7.641,7.76,21.766,21.766,0,0,1-21.359,0,20.315,20.315,0,0,1-7.641-7.76,22.377,22.377,0,0,1-2.8-11.2,22.826,22.826,0,0,1,2.8-11.28,20.179,20.179,0,0,1,7.641-7.84,21.766,21.766,0,0,1,21.359,0,20.2,20.2,0,0,1,7.641,7.84,22.837,22.837,0,0,1,2.8,11.28A22.387,22.387,0,0,1,234.249,57.571Zm-6.6-18.92a13.363,13.363,0,0,0-4.88-5.28,13.381,13.381,0,0,0-13.679,0,13.356,13.356,0,0,0-4.88,5.28,16.249,16.249,0,0,0-1.8,7.72,15.837,15.837,0,0,0,1.8,7.6,13.4,13.4,0,0,0,4.88,5.24,13.381,13.381,0,0,0,13.679,0,13.412,13.412,0,0,0,4.88-5.24,15.837,15.837,0,0,0,1.8-7.6A16.249,16.249,0,0,0,227.648,38.651Z"/>
    <path d="M282.608,9.211a3.736,3.736,0,0,1,1.08,2.76v51.52a3.772,3.772,0,0,1-1.08,2.72,3.664,3.664,0,0,1-2.76,1.12,3.6,3.6,0,0,1-2.72-1.08,3.813,3.813,0,0,1-1.04-2.76v-2.24a16.173,16.173,0,0,1-5.64,4.88,15.955,15.955,0,0,1-7.8,2,17.936,17.936,0,0,1-9.84-2.8,19.584,19.584,0,0,1-6.96-7.8,24.286,24.286,0,0,1-2.56-11.24,24.624,24.624,0,0,1,2.52-11.24,19.331,19.331,0,0,1,6.92-7.8,18.224,18.224,0,0,1,17.52-1.04,16.784,16.784,0,0,1,5.84,4.56v-18.8a3.811,3.811,0,0,1,1.04-2.76,3.6,3.6,0,0,1,2.72-1.08A3.739,3.739,0,0,1,282.608,9.211Zm-12.4,49.96a12.979,12.979,0,0,0,4.56-5.28,17.12,17.12,0,0,0,1.64-7.6,17.2,17.2,0,0,0-1.64-7.56,12.929,12.929,0,0,0-4.56-5.32,12.58,12.58,0,0,0-13.36,0,12.915,12.915,0,0,0-4.56,5.32,17.169,17.169,0,0,0-1.64,7.56,17.093,17.093,0,0,0,1.64,7.6,12.964,12.964,0,0,0,4.56,5.28,12.58,12.58,0,0,0,13.36,0Z"/>
    <path d="M332.767,25.931a3.838,3.838,0,0,1,1.08,2.84v35.2a19.9,19.9,0,0,1-2.759,10.84,16.584,16.584,0,0,1-7.481,6.44,26.117,26.117,0,0,1-10.64,2.08,30.123,30.123,0,0,1-7.479-1.12q-4.281-1.121-5.48-2.32-2.481-1.281-2.48-3.2a3.683,3.683,0,0,1,.319-1.28,3.029,3.029,0,0,1,2.96-2,6.063,6.063,0,0,1,2.241.48q6.4,2.479,10,2.48,6.4,0,9.8-3.08a10.817,10.817,0,0,0,3.4-8.441V60.531a13.917,13.917,0,0,1-5.641,5.36,16.732,16.732,0,0,1-8.359,2.24,18.883,18.883,0,0,1-10.08-2.8,19.465,19.465,0,0,1-7.16-7.8,23.987,23.987,0,0,1-2.6-11.24,23.99,23.99,0,0,1,2.6-11.24,19.577,19.577,0,0,1,7.12-7.8,18.543,18.543,0,0,1,9.96-2.8,18.215,18.215,0,0,1,14.16,6.88v-2.56a3.952,3.952,0,0,1,1.04-2.8,3.539,3.539,0,0,1,2.72-1.121A3.734,3.734,0,0,1,332.767,25.931Zm-12.679,33.28a12.886,12.886,0,0,0,4.759-5.28,16.677,16.677,0,0,0,1.72-7.64,16.436,16.436,0,0,0-1.72-7.6,13.24,13.24,0,0,0-4.759-5.28,12.762,12.762,0,0,0-6.96-1.92,12.608,12.608,0,0,0-6.88,1.92,13.164,13.164,0,0,0-4.76,5.32,17.463,17.463,0,0,0,0,15.119,13.153,13.153,0,0,0,4.76,5.321,12.608,12.608,0,0,0,6.88,1.92A12.96,12.96,0,0,0,320.088,59.211Z"/>
    <path d="M352.247,66.211a3.7,3.7,0,0,1-2.72,1.12,3.567,3.567,0,0,1-2.68-1.12,3.776,3.776,0,0,1-1.08-2.72V11.971a3.824,3.824,0,0,1,3.84-3.84,3.575,3.575,0,0,1,2.68,1.12,3.773,3.773,0,0,1,1.08,2.72v51.52A3.7,3.7,0,0,1,352.247,66.211Z"/>
    <path d="M398.127,26.131a3.78,3.78,0,0,1,1.08,2.719V63.411q0,10-5.52,14.96t-14.56,4.96a30.628,30.628,0,0,1-5.84-.56,17.545,17.545,0,0,1-4.72-1.52q-2.961-1.361-2.96-3.68a4.461,4.461,0,0,1,.159-1.04,4.581,4.581,0,0,1,1.361-2.08,3.07,3.07,0,0,1,2-.72,3.019,3.019,0,0,1,1.2.24,46.87,46.87,0,0,0,4.4,1.76,14.2,14.2,0,0,0,4.48.64q12.4,0,12.4-12.72v-1.6a14.583,14.583,0,0,1-5.56,4.48,18.121,18.121,0,0,1-7.8,1.6q-6.642,0-10.361-4.24t-3.719-11.12V28.85a3.812,3.812,0,0,1,1.04-2.759,3.6,3.6,0,0,1,2.719-1.08,3.671,3.671,0,0,1,2.761,1.12,3.775,3.775,0,0,1,1.079,2.719V50.771q0,5.28,2.321,7.8t7.04,2.52a10.341,10.341,0,0,0,7.52-2.88,9.928,9.928,0,0,0,2.96-7.44V28.85a3.812,3.812,0,0,1,1.04-2.759,3.6,3.6,0,0,1,2.72-1.08A3.67,3.67,0,0,1,398.127,26.131Z"/>
  </g>
</svg>
