<svg xmlns="http://www.w3.org/2000/svg" width="150" height="83" viewBox="0 0 150 83">
    <path fill="#231F20" fill-rule="evenodd" d="M32.721 51.564c.54-.158 1.089-.3 1.643-.385.675-.104 1.359-.14 2.038-.213.15-.016.297-.072.448-.087.971-.098 1.945-.18 2.915-.288.645-.073 1.284-.19 1.928-.267.445-.053.895-.067 1.342-.107.29-.027.577-.076.866-.108.284-.03.568-.07.853-.073.656-.007 1.313.014 1.97.003.25-.004.497-.086.747-.1.953-.05 1.906-.077 2.858-.133.59-.034 1.176-.11 1.764-.153a41.53 41.53 0 0 1 1.597-.09c1.033-.039 2.066-.072 3.098-.094.251-.006.443-.166.732-.134.57.062 1.155-.02 1.732-.06.337-.023.673-.076 1.008-.12.059-.007.113-.057.17-.06.504-.02.48-.02.53-.474.062-.563-.006-1.113-.084-1.667-.015-.1.021-.209.036-.313.012-.092.064-.196.036-.271-.184-.479-.044-.987-.154-1.475-.041-.18.067-.39.06-.585-.015-.465-.066-.928-.089-1.392-.013-.268 0-.537.001-.805 0-.287-.006-.574.002-.86.006-.23-.077-.356-.325-.346-.924.037-1.852.03-2.77.12-.48.048-.943.268-1.415.406a5.8 5.8 0 0 1-.518.131c-.36.07-.723.116-1.08.199-.583.136-1.156.32-1.743.433-.437.083-.892.066-1.335.127-.513.071-1.022.182-1.533.273-.212.037-.423.075-.636.096-.31.032-.611.042-.921.157a3.1 3.1 0 0 1-1.225.203c-.53-.03-.99.226-1.498.238-.146.003-.292-.004-.439-.004-.105 0-.233-.033-.313.013-.405.234-.845.141-1.273.172-.733.054-1.488.021-2.19.2-.463.116-.979.016-1.4.312-.039.027-.136-.047-.207-.05-.124-.007-.281-.043-.366.017-.456.325-.974.226-1.473.246-.31.012-.597.097-.894.16-.61.13-1.15.498-1.79.5-.062 0-.132.02-.186-.002-.546-.214-1.006.11-1.502.22-.31.07-.603.143-.837.368-.02.02-.066.049-.072.043-.367-.334-.409.111-.585.239-.096.069-.21.16-.314.159-.322-.007-.387.125-.24.397-.01.491-.039.979-.027 1.466.022.92-.029 1.84 0 2.76.004.095.073.184.097.28.026.107.087.28.042.32-.285.245-.09.555-.135.828-.007.046.065.125.118.153.03.015.131-.031.144-.07.132-.388.505-.369.794-.453zm6.175-10.1c-.024-.845-.054-1.689-.043-2.532.002-.172-.032-.197-.155-.178-.228.036-.452.096-.68.132-.043.007-.099-.044-.146-.074-.489-.313-1.015-.446-1.604-.456-.739-.013-1.497-.033-2.206-.212-.378-.096-.802-.041-1.159-.283-.177-.12-.312.026-.291.282.026.229.068.456.076.685.037 1.138.07 2.277.09 3.415.005.243-.051.49-.09.733-.045.293.137.314.34.276.253-.046.5-.125.752-.18a8.854 8.854 0 0 1 2.368-.195c.21.01.424-.054.635-.091.527-.09 1.052-.206 1.582-.273.408-.052.616-.232.612-.647-.002-.135-.077-.269-.08-.403zm23.797-.763c.01 0 .02-.02.029-.03l-.033-.029-.029.032c.012.01.023.027.033.027zm.288.51c.065.175.087.35.063.562-.046.41.025.832.046 1.25.008.17.06.356.009.508-.183.546-.04 1.069.055 1.598.02.106.05.211.05.317 0 .54.013 1.081-.022 1.619-.022.34-.025.66.104.983.037.094-.052.233-.062.353-.01.125-.086.298.148.31.175.008.37.021.39-.22.02-.217.005-.437.005-.656l.071-.017c-.074-.275-.181-.545-.21-.823-.02-.184.081-.379.115-.57a1.15 1.15 0 0 0 .024-.371c-.093-.579.005-1.155-.002-1.732-.007-.574-.08-1.148-.088-1.722-.005-.425.048-.851.075-1.277.007-.124.004-.25.02-.373.04-.286.002-.415-.363-.373-.585.069-.63.097-.428.634zM48.698 9.796c-.01 0-.02.02-.029.03.011.01.023.027.033.027.01-.001.019-.02.028-.03-.01-.01-.022-.027-.032-.027zM28.824 64.168c-.63.042-1.249.136-1.871-.03-.059-.016-.124-.012-.187-.01-.492.008-.993.085-1.473.012-.108-.033-2.583.033-2.632.008-.049-.026-.439-.228-.488-.355a1.632 1.632 0 0 1-.089-.426c.004-.065-.017-.22.022-.227.04-.007.276.018.276.018.264-.054.53-.138.795-.138.397 0 .821.169 1.18.072.417-.113.797-.048 1.195-.04a18.4 18.4 0 0 0 1.016-.016c.623-.023 1.246-.073 1.869-.071.416.001.839.137 1.245.093.39-.042.778.24 1.153-.02l1.248.093-.047-.347c.085-.392-.033-.785-.066-1.159-.088-1-.003-2.022-.308-3-.022-.07.003-.156.001-.234-.01-.518-.006-1.037-.04-1.553-.027-.429-.149-.856-.14-1.283.008-.41-.179-.806-.03-1.233.08-.227-.231-.299-.36-.447-.183-.211-.167.11-.255.086-.167-.043-.422-.066-.473-.176a6.465 6.465 0 0 1-.583-2.111c-.024-.266.07-.575-.037-.792-.116-.24-.138-.46-.158-.704-.026-.316.12-.662-.152-.938-.017-.018-.026-.074-.014-.085.34-.32.14-.728.159-1.091.022-.442.094-.9-.16-1.323-.06-.1-.05-.305.015-.408.195-.312.416-.612.664-.883.083-.091.297-.14.418-.102.222.072.418.226.63.334.047.024.122.008.177-.01.02-.007.04-.088.024-.112-.232-.346.065-.761-.147-1.108.196-.229-.103-.379-.091-.588.039-.677.071-1.355.071-2.032 0-.496-.07-.99-.084-1.486-.016-.554.001-1.109-.007-1.662a.918.918 0 0 0-.084-.349c-.09-.203-.1-.772.011-.972.129-.234.125-.402-.125-.581-.2-.143-.34-.375-.492-.579-.032-.042-.018-.143.01-.2.35-.722.706-1.441 1.061-2.161.02-.041.048-.08.067-.122.237-.508.463-1.023.717-1.523.07-.139.251-.22.33-.356.13-.219.198-.471.322-.693.408-.737.838-1.46 1.242-2.198.257-.468.431-.991.743-1.415.138-.187.045-.454.2-.517.423-.172.273-.674.59-.911.139-.105.158-.365.244-.55.136-.293.295-.575.42-.872.212-.501.353-1.039.616-1.508.43-.768.965-1.475 1.4-2.24.38-.67.875-1.286 1.061-2.06.045-.186.125-.367.212-.538.155-.306.344-.595.491-.905.191-.402.61-.686.615-1.184 0-.011.021-.022.03-.035.466-.698.937-1.394 1.398-2.096a19.87 19.87 0 0 0 1.035-1.82c.08-.162.11-.35.2-.503.281-.48.607-.941.873-1.421.168-.303.336-.61.57-.84.224-.22.556-.33.842-.485.007-.004.025.017.04.022.268.083.6.796.47 1.045-.31.597-.63 1.19-.95 1.782a8.337 8.337 0 0 1-.36.604c-.116.176-.263.332-.373.51-.175.286-.331.583-.495.876-.427.767-.851 1.536-1.282 2.302-.264.468-.538.93-.802 1.399-.112.198-.343.463-.285.592.125.28-.076.351-.174.495-.05.07-.13.121-.172.195-.208.366-.344.758-.592 1.117-.515.743-.924 1.56-1.376 2.347-.118.205-.249.403-.355.613-.23.454-.43.924-.675 1.37-.34.617-.727 1.21-1.064 1.83-.318.583-.597 1.188-.893 1.784-.47.943-.938 1.887-1.413 2.828-.072.143-.247.26-.26.4-.047.497-.346.866-.583 1.265-.094.158-.288.264-.362.427-.455 1.016-.883 2.043-1.335 3.06a1.977 1.977 0 0 1-.388.57c-.107.108-.169.15-.038.278.117.114.217.126.306-.006.222-.327.507-.3.816-.164.138.061.27.14.413.192.33.121.63.318 1.017.278.336-.034.714-.07 1.01.052.307.126.593.114.893.124.382.013.786-.068 1.14.033.374.106.738.136 1.113.174.106.01.261.156.284.263.056.268.141.12.213.033.067-.082.151-.181.157-.276.034-.574.418-1.008.648-1.485.313-.65.767-1.241 1.106-1.894.3-.58.687-1.114 1-1.687.532-.971 1.06-1.947 1.5-2.966.084-.194.263-.346.354-.538.282-.597.533-1.208.813-1.806.163-.346.358-.672.503-1.032.116-.286.46-.476.364-.87-.014-.056.052-.147.104-.199.366-.367.573-.828.818-1.275.424-.778.912-1.52 1.376-2.277.206-.336.439-.657.623-1.004.314-.59.606-1.192.892-1.796.144-.302.416-.38.689-.5.288-.127.293.19.461.23-.026.108-.03.23-.082.323-.386.688-.662 1.435-1.18 2.053-.149.178-.081.543-.234.714-.315.352-.467.79-.725 1.162-.37.535-.672 1.103-.94 1.687-.374.813-.824 1.592-1.275 2.352-.405.682-.654 1.431-1.083 2.094-.229.35-.375.754-.577 1.124-.19.347-.399.686-.613 1.02-.21.328-.335.694-.55 1.03-.606.944-1.106 1.958-1.645 2.945-.068.126-.1.273-.175.394-.144.234-.301.46-.461.683-.204.283-.217.682-.55.89-.07.045-.117.142-.155.224-.306.667-.31 1.373-.257 2.083.019.259.098.516.096.773a36.865 36.865 0 0 1-.077 2.021c-.017.255.157.267.295.268a2.51 2.51 0 0 0 .728-.086c.813-.244 1.663-.129 2.487-.29.658-.13 1.332-.177 1.998-.27.147-.02.28-.082.175-.282-.027-.052-.048-.125-.033-.178.154-.571-.045-1.12-.09-1.68a30.812 30.812 0 0 1-.103-2.126c-.006-.47.082-.94.08-1.411-.003-.395.187-.765.111-1.164-.005-.029.04-.087.073-.1.249-.1.356-.364.64-.47.196-.072.288.109.469.014.513-.27 1.06-.478 1.592-.71.415-.181.831-.36 1.245-.544.389-.173.774-.354 1.163-.526.199-.088.404-.162.602-.252.362-.165.741-.304 1.075-.516a3.915 3.915 0 0 1 1.133-.479c.14-.035.305.015.453.047.106.023.132.075.108.218-.103.601-.627.742-1.047.93-.465.209-.997.265-1.496.402-.232.065-.494.114-.67.258-.253.205-.543.3-.823.433-.201.095-.386.225-.581.333-.055.03-.122.038-.18.06-.443.173-.895.324-1.32.53-.177.087-.292.245-.53.279-.46.065-.709.353-.652.777.088.672.044 1.342.057 2.012.003.166.137.405.068.482-.24.268.301.56-.06.786.302.104.165.385.152.541-.034.418.137.81.041 1.243-.132.597.14.847.76.65.543-.172 1.128-.221 1.698-.299.603-.08 1.237-.043 1.81-.217.83-.251 1.705-.227 2.523-.588.617-.273 1.34-.31 2.02-.428.779-.135 1.564-.236 2.344-.365.896-.149 1.825-.059 2.7-.366.044-.015.11.056.167.056.312.004.642.065.93-.018.463-.133.89-.383 1.399-.182.235.093.305.01.29-.263-.015-.265-.042-.53-.034-.794.018-.577.06-1.153.082-1.73.014-.355-.013-.713.013-1.067.024-.337.081-.674.146-1.006.046-.235.243-.523.162-.678-.083-.162-.421-.186-.643-.282-.097-.043-.213-.095-.265-.178a1.223 1.223 0 0 1-.177-.853c.045-.335.242-.265.438-.292.044-.006.198-.048.027-.17a5.565 5.565 0 0 1-.753-.656 113.016 113.016 0 0 1-1.942-2.06c-.276-.3-.55-.602-.797-.934-.227-.303-.593-.535-.85-.862-.296-.378-.665-.696-.99-1.052-.458-.506-.959-.967-1.368-1.528-.377-.515-.915-.912-1.376-1.367-.504-.497-1.014-.99-1.495-1.508-.259-.28-.439-.631-.697-.91-.272-.296-.595-.546-.897-.814-.61-.54-1.124-1.17-1.654-1.786-.31-.359-.757-.598-.92-1.088-.025-.075-.134-.124-.208-.18-.077-.06-.173-.1-.235-.171-.245-.283-.479-.576-.722-.861-.154-.18-.486-.237-.39-.587.004-.018-.067-.051-.093-.085-.227-.287-.65-.425-.67-.875 0-.025-.107-.038-.156-.069-.571-.363-.835-.877-.758-1.559.052-.46.331-.624.672-.341.362.3.668.669.998 1.007.658.676 1.316 1.351 1.975 2.025.288.296.648.548.855.892.338.566.827.977 1.262 1.444.182.195.453.325.586.543.332.542.83.933 1.211 1.43.422.55.944 1.024 1.402 1.548.416.475.8.978 1.208 1.46.486.572.982 1.135 1.473 1.703.029.032.053.07.086.097.199.154.413.291.596.463.178.167.299.404.493.546.169.123.219.416.505.377.056.437.461.59.712.867.248.275.534.517.812.764.101.091.282.133.326.239.08.196.173.331.363.446.155.093.235.304.361.452.232.271.469.54.713.8.221.237.423.522.694.679.32.184.522.429.726.721.284.408.506.92 1.125.957.069.005.13.136.193.21.12.14.134.365.394.394.38.041.778.068 1.126.206.91.36 1.883.279 2.815.471.594.123 1.203.173 1.802.28.572.101 1.137.322 1.706.328.647.006 1.179.338 1.786.446.79.14 1.558.4 2.334.617.29.081.57.2.862.274.53.134 1.067.248 1.602.368.59.132 1.19.233 1.768.404.33.097.718.073.973.215.33.185.686.164 1.015.306.509.22 1.101.196 1.648.382.606.207 1.265.252 1.892.406.947.23 1.887.493 2.828.749.146.04.287.179.422.168.517-.04 1.001.079 1.495.2.629.152 1.314.158 1.89.416.648.29 1.347.258 1.995.51.436.169.951.122 1.418.23.593.136 1.17.344 1.76.497.335.086.71.033.986.311.009.01.09-.052.137-.08l-.013.012c.304.038.614.05.911.117 1.744.395 3.488.794 5.228 1.207 1.367.325 2.728.68 4.095 1.006.386.092.789.194 1.177.174.239-.012.43-.042.626.114.22.174.473.226.756.202.107-.01.225.066.334.111.35.146.7.297 1.05.441.04.017.094.007.14 0 .043-.007.085-.028.128-.043-.026-.047-.042-.106-.08-.14-.331-.296-.617-.636-.9-.974-.663-.787-1.258-1.638-1.977-2.368a37.202 37.202 0 0 1-1.186-1.245c-.554-.619-1.11-1.236-1.658-1.86-.336-.383-.653-.785-.988-1.17-.438-.504-.845-1.047-1.344-1.482-.344-.3-.677-.572-.88-.992-.056-.113-.225-.172-.343-.255-.127-.09-.284-.158-.376-.275-.364-.464-.618-.997-1.116-1.375-.461-.352-.827-.832-1.226-1.264-.313-.34-.622-.686-.914-1.044-.461-.567-1.053-1.003-1.526-1.565-.176-.21-.37-.472-.648-.633-.191-.111-.429-.276-.413-.582.002-.04-.065-.085-.104-.123-.15-.152-.34-.28-.444-.457-.125-.218-.255-.343-.513-.287-.053.01-.117.03-.161.012-.838-.363-1.674-.73-2.51-1.096-.113-.05-.22-.108-.336-.149-.339-.12-.679-.238-1.02-.351-.362-.12-.735-.21-1.085-.357-.29-.121-.647-.08-.875-.371-.049-.061-.203-.043-.31-.052-.109-.008-.228.023-.327-.01-.497-.173-.982-.387-1.486-.536a34.73 34.73 0 0 0-2.082-.53c-.691-.16-1.388-.288-2.082-.433-.057-.012-.155-.04-.158-.066-.026-.314-.265-.18-.426-.214-.163-.034-.33-.06-.487-.115a78.593 78.593 0 0 1-1.505-.542c-.355-.131-.71-.266-1.062-.408-.343-.14-.67-.35-1.026-.423-.481-.1-.871-.49-1.397-.421-.012.001-.024-.02-.038-.025-.372-.181-.744-.35-1.176-.329-.096.005-.195-.068-.292-.104-.156-.059-.31-.122-.469-.173-.652-.215-1.307-.422-1.958-.64-.365-.123-.718-.279-1.087-.387-.48-.142-.974-.243-1.458-.374-.438-.12-.872-.255-1.307-.387-.275-.083-.546-.18-.822-.262a29.244 29.244 0 0 0-1.048-.298c-.321-.082-.69-.079-.957-.242-.24-.148-.48-.222-.733-.306-.312-.105-.605-.304-.922-.347-.53-.072-.977-.333-1.46-.516-.154-.058-.327-.066-.492-.095-.075-.013-.16-.004-.228-.033-.353-.151-.694-.331-1.054-.462-.468-.17-.982-.243-1.414-.474-.286-.153-.654-.079-.832-.255-.269-.266-.586-.235-.876-.316-.895-.247-1.75-.661-2.696-.7-.901-.038-1.711-.457-2.587-.596a7.355 7.355 0 0 1-.89-.206c-.598-.171-1.195-.354-1.79-.536-.547-.167-1.111-.265-1.66-.41-.93-.249-1.849-.543-2.805-.693-.079-.012-.157-.029-.236-.043.025.083.023.2.078.245.35.272.466.764.907.954.093.04.208.177.204.264-.009.206.152.244.25.348.4.426.822.835 1.177 1.296.137.177.285.336.432.501.195.217.374.446.567.664.085.096.185.18.283.264.092.078.204.136.285.224.18.191.342.398.517.594.557.627 1.278 1.088 1.785 1.766.017.022.052.03.076.049.487.373.954.76 1.382 1.215.709.752 1.384 1.55 2.217 2.18.21.158.431.304.622.482.25.23.466.497.71.732.24.23.55.406.733.671.19.273.421.489.647.718.429.436.91.833 1.268 1.32.594.807 1.244 1.539 2.061 2.12.085.061.204.165.2.243-.017.288.19.416.352.574.436.43.706.926.685 1.556-.006.175-.38.73-.491.684-.253-.11-.583-.087-.73-.401-.215-.457-.627-.737-.976-1.073-.164-.158-.408-.279-.489-.47-.2-.472-.643-.71-.942-1.082-.294-.368-.67-.67-1.006-1.003-.34-.336-.656-.697-1.018-1.007-.343-.296-.529-.728-.922-.982-.232-.15-.4-.398-.616-.577-.46-.38-.935-.744-1.4-1.118a1.378 1.378 0 0 1-.195-.202c-.566-.688-1.115-1.39-1.817-1.954-.45-.362-.864-.767-1.287-1.16-.452-.421-.89-.86-1.346-1.276-.423-.386-.952-.688-1.28-1.139-.584-.802-1.31-1.468-1.95-2.212-.14-.162-.446-.22-.517-.393-.161-.39-.511-.595-.757-.891-.48-.576-.87-1.233-1.462-1.717-.145-.118-.236-.313-.326-.486a3.066 3.066 0 0 1-.262-.62c-.055-.209.19-.523.442-.626.36-.146.359-.146.114-.468-.019-.024-.023-.058-.041-.083-.21-.295-.172-.47.164-.589.277-.096.582-.178.85-.216.566-.083 1.165-.03 1.736.06.211.035.453.038.645.124.268.118.49.338.821.232.044-.014.114.035.164.068.63.407 1.39.409 2.074.657.624.226 1.334.213 1.961.432.554.194 1.11.331 1.679.45.218.044.423.262.625.25.628-.038 1.157.306 1.753.396.5.075.972.334 1.458.51.07.025.148.034.222.051.4.095.804.173 1.196.289.467.139.923.31 1.384.468.805.275 1.602.575 2.416.814.444.13.884.29 1.31.447.93.344 1.945.446 2.814.965.06.036.154.012.23.029.3.068.64.073.888.226.704.432 1.544.437 2.27.789.147.071.328-.062.505.095.143.128.383.15.582.21.117.034.244.038.358.078.637.22 1.27.456 1.909.667.436.143.887.243 1.323.385.185.06.342.218.528.263.585.14 1.177.225 1.742.469.496.214 1.043.307 1.555.491.6.216 1.23.317 1.809.63.474.257 1.033.36 1.553.532.116.038.248.144.34.115.45-.139.755.253 1.168.289.325.028.621.319.952.383.577.112 1.129.279 1.687.46.522.17 1.045.354 1.576.502.47.131.95.231 1.411.385.42.14.827.319 1.229.505.816.378 1.698.572 2.544.856.759.254 1.44.692 2.238.85.389.076.733.353 1.112.5.304.12.403.38.29.592-.169.314-.024.415.176.597.218.198.37.468.557.7.057.07.172.183.206.166.222-.11.232.115.326.192.172.138.29.312.516.418.264.123.455.407.672.628.1.1.169.24.282.32.12.084.086.246.277.33.271.12.472.413.689.646.367.397.762.756 1.087 1.21.512.716 1.192 1.31 1.798 1.958.425.454.843.915 1.27 1.368.251.266.533.503.765.784.417.503.792 1.042 1.212 1.543.423.505 1.101.778 1.341 1.458.02.053.088.087.132.132l.595.601c.436.439.886.865 1.307 1.32.46.496.94.984 1.321 1.539.284.413.65.735.97 1.104.303.35.697.62 1.046.932.073.065.159.147.18.236.15.607-.017 1.007-.538 1.368-.032.021-.039.155-.016.17.224.14.476.295.494.563.026.39.275.727.178 1.151-.075.33.044.706-.037 1.033-.163.663-.2 1.326-.163 1.999.012.23.114.468.074.684-.07.387-.227.759.006 1.141.021.034.007.094.001.14-.058.43-.12.859-.175 1.289a.815.815 0 0 0 .001.235c.044.272.107.541.141.814.027.216.115.543.012.635-.268.236-.093.442-.065.661.02.167.13.364.074.492-.153.347-.122.706-.055 1.033.085.41-.295.815.024 1.206.002.002-.025.02-.028.035-.037.16-.087.32-.104.482-.027.264-.02.532-.048.795-.036.335-.106.666-.139 1.002-.023.232.032.478-.018.703-.136.61-.273 1.215-.19 1.848.006.036-.04.076-.052.117-.033.117-.069.235-.087.355-.011.067.042.168.01.203-.187.206-.137.407-.068.647.046.163-.02.361-.051.541-.049.283-.217.557-.038.854.027.045.014.122.003.18-.085.483-.26.967-.245 1.445.033.958-.295 1.896-.12 2.856.007.04-.003.105-.031.129-.465.393-.276.939-.163 1.338.12.425.054.702-.165 1.016-.193.277-.463.383-.747.282-.405-.143-.6-.349-.571-.645.026-.275.084-.546.131-.818.064-.369.246-.733-.02-1.105-.046-.063.006-.206.028-.31.04-.189.097-.375.135-.564.032-.166.042-.335.07-.501.036-.21.107-.419.114-.63.018-.532-.083-1.087.036-1.592.136-.572.141-1.133.16-1.705.016-.5.044-1.001.089-1.5.05-.553.16-1.102.181-1.655.03-.746.234-1.468.22-2.223-.011-.633.114-1.267.16-1.902.023-.3.01-.605.004-.907-.03-1.333-.063-2.665-.09-3.998-.003-.137.033-.274.044-.412.017-.217.042-.433.037-.65-.01-.4-.046-.8-.06-1.201-.014-.415-.02-.832-.021-1.248 0-.185.012-.372.04-.556.036-.241.173-.496.127-.714-.104-.484-.115-.945.008-1.423.034-.133-.11-.327-.059-.439.156-.333-.087-.26-.233-.252-.234.012-.557.164-.682.062-.259-.213-.48-.035-.708-.071-.45-.072-.904-.143-1.345-.258-.53-.138-1.039-.385-1.575-.47-.627-.097-1.184-.374-1.78-.547-.421-.122-.829-.292-1.252-.405-.364-.096-.756-.099-1.11-.219-.678-.228-1.372-.371-2.069-.516-.201-.042-.39-.144-.59-.193-.64-.156-1.29-.28-1.926-.454-.775-.211-1.535-.476-2.31-.69-.602-.167-1.217-.289-1.827-.436-.776-.188-1.574-.27-2.345-.5-.436-.13-.91-.133-1.358-.228-.718-.155-1.429-.34-2.144-.51-.83-.2-1.662-.393-2.492-.597-.305-.076-.603-.18-.906-.266-.47-.13-.94-.263-1.414-.383-.696-.176-1.396-.34-2.092-.513-.423-.106-.842-.305-1.267-.316-.707-.02-1.318-.385-2.013-.45-.54-.051-1.057-.347-1.597-.396-.765-.07-1.463-.384-2.21-.504a4.894 4.894 0 0 1-.703-.181c-.589-.187-1.172-.39-1.762-.572-.286-.089-.577-.179-.872-.211-.425-.047-.833-.166-1.268-.194-.521-.035-1.029-.276-1.544-.418-.177-.048-.36-.074-.542-.102-.553-.086-1.11-.157-1.661-.256-.481-.086-.953-.255-1.436-.294-.648-.053-1.276-.148-1.888-.373-.148-.054-.314-.059-.31.196.002.22.06.457-.17.63-.047.034-.014.178-.015.272-.007.458.102.958-.047 1.362-.213.579-.047 1.148-.154 1.704-.072.372.17.676.05 1.091-.172.593-.057 1.264-.132 1.893-.074.618.04 1.225-.052 1.857-.13.896.022 1.83.044 2.75.007.333-.011.667-.024 1-.018.488-.05.974-.056 1.461-.003.166.084.332.079.497-.016.56-.065 1.118-.08 1.678-.004.196.083.394.079.59-.008.356-.084.712-.076 1.066.015.648.07 1.294.11 1.941.003.04.02.082.014.12-.078.476.206.934.065 1.412-.006.023.033.056.033.084.01.606.197 1.197.157 1.808-.014.21-.05.434.003.63.103.374.098.745.084 1.125-.014.343-.047.682.062 1.032.079.25.034.543.023.817-.022.51-.087 1.02-.082 1.529.007.842.055 1.685.087 2.527.004.109-.02.227.012.327.17.53.138 1.085.157 1.623.017.497.125.941.335 1.377.022.046.038.131.014.157-.278.295-.2.671-.09.95.203.516.151.993.02 1.494a1.805 1.805 0 0 0-.068.5c.015.514.073 1.028.07 1.541-.005.748-.062 1.496-.069 2.245-.003.354.086.708.081 1.062-.007.592-.058 1.182-.086 1.773-.009.187.01.376-.005.564-.057.74-.126 1.48-.18 2.22-.01.148.03.3.047.45.108-.113.208-.236.326-.337.264-.229.506-.529.815-.65.495-.192 1.047-.192 1.565-.37.47-.161 1-.201 1.502-.2.579 0 1.132-.13 1.69-.227 1.1-.191 2.186-.458 3.285-.653 1.008-.179 2.027-.303 3.04-.452.638-.093 1.275-.191 1.914-.28.365-.05.736-.069 1.099-.132.473-.083.94-.21 1.414-.292.586-.1 1.177-.17 1.765-.26.304-.046.606-.153.909-.154.586-.002 1.13-.326 1.727-.204.028.005.06-.014.09-.023.33-.103.662-.296.99-.292.914.01 1.746-.368 2.636-.467.688-.078 1.349-.373 2.034-.504.237-.046.458-.211.658-.192.529.051.981-.217 1.483-.28.585-.075 1.17-.232 1.763-.304.321-.038.646-.056.965-.102.527-.076 1.05-.18 1.578-.246.359-.045.709-.055 1.066-.189.357-.133.763-.038 1.164-.186.633-.231 1.324-.314 1.997-.423.549-.09 1.133-.042 1.655-.206.97-.305 1.972-.298 2.959-.42.632-.077 1.26-.153 1.878-.303.208-.05.408-.13.622-.158a600.82 600.82 0 0 0 3.1-.4c.334-.043.51.066.62.42.08.259.119.534.226.78.09.204-.012.258-.154.298-.19.053-.367.116-.583.118-.311.003-.598.327-.953.084-.06-.04-.204-.027-.27.019-.31.215-.658.13-.993.168-.268.029-.564.064-.784.2-.185.113-.346.178-.553.17-.172-.006-.347-.017-.516.007-.779.111-1.56.211-2.333.36-.676.13-1.382.102-2.034.375a.484.484 0 0 1-.324 0c-.279-.102-.496-.013-.702.166-.055.048-.15.127-.185.11-.427-.21-.754.34-1.18.15-.05-.023-.201.064-.228.132-.104.261-.317.195-.508.204-.125.007-.258-.012-.37.028-.668.235-1.26.663-2.011.686-.512.016-1.019.182-1.531.217-.584.04-1.169.022-1.69.348-.033.02-.095.027-.126.01-.412-.234-.803.012-1.173.1-.695.162-1.395.307-2.1.367a3.237 3.237 0 0 1-.714-.043c-.323-.05-.54.154-.821.178-.449.039-.894.139-1.338.226-.844.167-1.686.348-2.531.513-.476.094-.956.164-1.433.251-.557.101-1.109.269-1.67.301-.754.043-1.484.26-2.254.222-.616-.03-1.242.105-1.862.175-.473.054-.944.12-1.415.185-.075.01-.148.04-.222.06-.306.085-.624.266-.914.228-.292-.038-.53.117-.805.08-.1-.015-.212.074-.321.106-.256.073-.544.248-.764.186-.35-.1-.502.023-.51.025-.437.14-.947-.015-1.337.335-.064.057-.195.041-.296.054-.162.022-.338.003-.481.065-.56.239-1.161.252-1.744.354-.334.06-.694-.022-1.025.046-.497.103-.972.371-1.466.4-.383.023-.72.144-1.068.234-.566.144-1.146.225-1.7.442-.438.17-.74.315-.883.659-.011.026-.058.06-.079.056a6.061 6.061 0 0 1-.48-.144c-.012-.004-.318-.167-.353-.13-.226-.223-.508-.412-.662-.677-.17-.293-.297-.636-.12-1.011.108-.227.173-.488.193-.739.052-.67.07-1.345.098-2.019.002-.044-.018-.089-.028-.134-.021.046-.047.09-.063.136-.252.717-.565.902-1.286.724-.428-.105-.847-.251-1.272-.371-.44-.124-.89-.214-1.322-.361-.795-.27-1.56-.652-2.373-.832-.548-.12-1.108-.352-1.706-.229-.227.046-.55.096-.692-.02-.342-.286-.755-.071-1.111-.266a2.042 2.042 0 0 0-.842-.237c-.633-.014-1.184-.285-1.777-.408-.807-.168-1.605-.386-2.405-.586-.208-.051-.442-.071-.612-.185-.377-.252-.703-.212-1.094-.016-.209.105-.485.158-.716-.157-.183-.248-.46-.484-.852-.476-.4.009-.79-.15-1.11-.358-.568-.369-1.203-.356-1.82-.46-.235-.039-.501-.025-.695-.136-.258-.148-.283-.505-.167-.709.124-.217.234-.577.581-.553.328.023.65.124.973.2.159.037.31.111.469.141.496.096 1.018.091 1.46.39.112.075.214.152.249-.08.046-.301.113-.6.19-.895.038-.15.184-.297.165-.43-.076-.57-.213-1.132-.08-1.712.017-.074.029-.17-.004-.232-.187-.35-.082-.72-.084-1.08-.008-1.164.007-2.328-.006-3.491-.008-.715-.067-1.429-.072-2.143-.004-.48.057-.958.071-1.438.006-.209-.1-.443-.035-.624.155-.439-.197-.993.31-1.342-.178-.195.038-.286.118-.397.15-.21.25-.338-.106-.469-.182-.066-.395-.342-.396-.524 0-.227.22-.415.51-.457.317-.045.625-.148.939-.214.628-.133 1.258-.256 1.885-.39.308-.064.614-.205.92-.202.387.004.725-.088 1.08-.223.25-.095.542-.091.817-.114.204-.017.413-.02.617-.001.335.029.73-.015.983.15.237.155-.055.469-.122.712-.004.014.004.036-.004.046-.08.096-.15.253-.247.274-.429.094-.865.15-1.3.216-.092.015-.188.004-.278.024-.595.131-1.155.436-1.794.36-.054-.006-.113.052-.172.06-.645.086-1.228.44-1.901.414-.253-.009-.502.326-.504.598-.003.268.018.538-.005.805-.07.823.05 1.642.022 2.467-.027.767-.089 1.537-.024 2.31.091 1.113-.07 2.226.163 3.35.18.871.105 1.8.12 2.703.009.52-.079 1.041.004 1.563.065.417.298.707.689.832.869.276 1.74.546 2.621.78.922.247 1.854.45 2.782.669.383.09.394.09.386-.31-.026-1.311-.066-2.621-.088-3.932-.003-.227.13-.482.066-.68-.223-.678.008-1.42-.319-2.075-.008-.017.025-.055.04-.082.146-.261.097-.522.005-.786-.022-.063-.054-.173-.028-.194.28-.226.121-.465.042-.707a1.54 1.54 0 0 1-.085-.353 74.987 74.987 0 0 1-.095-1.552c-.008-.124.006-.249.012-.374.008-.178.035-.358.021-.534-.029-.385-.191-.8-.093-1.143.124-.438.094-.848.044-1.262-.073-.622.122-1.216.117-1.83a.645.645 0 0 1 .815-.641c.067.017.167.08.172.132.026.235.028.473.032.71.006.288-.094.637.035.847.15.247-.146.474.098.716.114.113-.02.472-.034.72-.006.124-.045.295.019.366.232.259.16.558.162.846.001.346.073.681.05 1.041-.024.403.193.836.056 1.277-.011.034.04.082.048.126.075.371.054.746.195 1.123.098.263-.075.625-.117.944-.011.082.009.242.021.243.336.02.13.222.13.357-.005.297-.04.6.003.892.154 1.05.194 2.103.182 3.162-.01.783-.008 1.567.002 2.35.003.214.046.428.09.637.057.266.388.475.65.427.164-.03.458.003.554.058.084.048.184.076.253.14.215.193.476.019.728.13.613.266 1.259.47 1.91.625.337.081.634.22.948.343.349.135.728.197 1.096.279.512.112 1.027.21 1.54.32.225.05.447.114.67.172l.004-.818c0-.015-.003-.03-.003-.046-.002-.505-.275-1.008-.003-1.52.033-.06-.035-.173-.049-.263-.066-.42-.17-.838-.182-1.26-.008-.286.107-.566-.102-.838-.062-.079-.029-.242-.017-.365.016-.182.073-.362.075-.545.009-.71-.003-1.42.007-2.13.004-.228.11-.466.072-.682-.07-.393.11-.822-.166-1.185-.015-.02-.003-.061 0-.093.072-.612.015-1.221-.063-1.828-.06-.475-.189-.945-.199-1.42-.016-.734.055-1.47.065-2.206.004-.307-.084-.615-.08-.922.013-.845.07-1.69.077-2.535a13.995 13.995 0 0 0-.092-1.545c-.023-.225-.101-.423.022-.66.073-.14.01-.354.001-.534-.018-.366-.042-.73-.064-1.097-.03-.493-.004-.999-.107-1.476-.09-.417-.06-.806-.002-1.209.014-.1.018-.202.015-.302-.01-.28-.03-.558-.04-.837-.007-.174-.001-.348-.014-.521-.002-.022-.088-.06-.128-.053-.307.057-.61.143-.92.182-.44.056-.93-.025-1.316.142-.574.246-1.168.134-1.736.279-.057.014-.144.052-.169.028-.305-.294-.675.058-.989-.104-.761.28-1.572.09-2.364.276-.611.143-1.29.196-1.936.203-1.011.01-2.01.113-3.012.216-.553.056-1.106.118-1.66.17-.43.04-.86.079-1.291.098-.39.017-.78.004-1.171.009-.43.005-.86-.002-1.29.028-.445.032-.886.108-1.33.155-.667.072-1.333.149-2.002.197-.452.033-.908.014-1.362.027-.643.018-1.287.045-1.93.068-.125.004-.274-.037-.371.017-.633.347-1.35.143-2.02.334-.725.206-1.508.217-2.266.308-.11.013-.192.154-.356-.016-.087-.09-.417.052-.634.1-.027.006-.055.076-.056.116-.008.363-.011.725-.013 1.086-.001.58-.012 1.16.006 1.74.007.244-.118.53.166.724.037.024.014.15.005.226-.023.213-.083.426-.078.638.02.893.053 1.785.092 2.677.016.357.061.712.091 1.068.033.385.07.77.092 1.155.043.734.073 1.468.114 2.202.02.354-.02.734.1 1.053.126.338-.035.638.023.957.044.24-.024.497-.004.744.03.385.112.767.14 1.154.025.358-.012.721.013 1.08.047.678.116 1.355.18 2.032.03.322.077.642.105.963.027.288.068.579.049.865-.02.296.016.39.27.302.284-.1.568-.153.863-.185.066-.006.123-.08.187-.118.096-.055.19-.116.292-.152.129-.045.277-.042.395-.102.42-.219.89-.243 1.333-.369.713-.201 1.434-.376 2.145-.584.08-.023.167-.18.174-.282.033-.46.067-.925.049-1.386-.066-1.707-.151-3.414-.229-5.121-.003-.079.003-.157-.006-.235-.059-.52-.12-1.04-.182-1.56-.012-.107-.034-.215-.034-.323 0-.212-.275-.43.009-.64.008-.006-.023-.072-.041-.108-.038-.074-.108-.144-.116-.22-.07-.693-.112-1.388-.201-2.077-.048-.374-.057-.755-.119-1.117-.062-.357.096-.771-.21-1.08-.013-.82-.025-1.64-.039-2.459-.004-.234.033-.48-.02-.702-.18-.747-.02-1.399.37-2.054.164-.275.342-.182.494-.16.18.027.385.107.38.387-.01.733.196 1.458.097 2.198-.013.095.054.202.087.304.028.086.083.171.087.258.011.327-.016.657.015.98.034.35.183.7.16 1.043-.02.333.287.653.03.988-.017.022.055.102.072.16.04.128.08.257.105.388.106.55-.19 1.119.08 1.661.005.012-.007.03-.007.046-.02.645-.07 1.29-.05 1.935.025.771.108 1.541.166 2.312.006.077.007.156.016.233.056.474.158.948.164 1.422.02 1.587.01 3.175.003 4.762a.574.574 0 0 1-.111.336.458.458 0 0 0-.023.585c.293.417.493.818.122 1.296-.07.091-.243.275-.358.314-.335.116-.67.187-1.03.21-.47.03-.933.119-1.387.315-.304.132-.645.347-1.03.232-.041-.012-.106-.012-.136.012-.495.398-1.211.252-1.689.692-.027.026-.082.024-.125.03-.615.075-1.242.11-1.751.537a.164.164 0 0 1-.13.028c-.232-.073-.49-.113-.679-.248-.102-.072-.086-.31-.125-.473-.007-.03-.026-.058-.028-.088-.032-.523-.235-1.046.005-1.574.048-.106.035-.247.026-.37-.058-.798-.153-1.594-.177-2.393-.031-1.04-.004-2.08-.01-3.12a4.281 4.281 0 0 0-.143-1.16c-.11-.396-.106-.826-.131-1.243-.038-.602-.063-1.204-.094-1.807l-1.736-.039c-.554-.063-1.116-.174-1.666-.136zM127.4 31.155l.032.052-.075.007.043-.06zm-.078.107l.01-.046.025-.002a.202.202 0 0 1-.012.015l-.023.033zm-.058.082c.018-.028.038-.054.058-.082l-.025.11c-.012-.01-.034-.027-.033-.028zm-75.889 3.04c-.144.298-.258.617-.444.886-.311.453-.697.857-.992 1.319-.121.19-.186.336-.44.305l-.367-.119c.05-.107.09-.22.153-.32.203-.315.34-.666.548-.985.206-.316.17-.787.577-1.007.011-.005.017-.026.019-.04.031-.355.347-.414.585-.518a.568.568 0 0 1 .471.038c.191.131.035.255-.092.354-.018.013-.005.062-.018.088zm1.574.583c.062-.076.184-.104.207-.117.484-.028.541.054.38.406-.02.042-.044.081-.062.124-.191.45-.49.826-.767 1.224-.383.55-.643 1.187-1.018 1.744-.387.575-.848 1.09-1.098 1.759a.66.66 0 0 1-.963.337c-.19-.115-.318-.458-.18-.538.351-.2.54-.475.68-.857.115-.314.43-.547.612-.843.455-.74.835-1.52 1.328-2.244.26-.384.604-.65.881-.995zm-30.863-1.902c-.233-.315-.19-.463.177-.529.06-.01.143-.005.176-.042.254-.291.467-.091.686.048.133.086.271.168.392.27.102.085.121.065.18-.048.168-.327.367-.637.542-.96a.885.885 0 0 1 1.211-.352c.248.143.308.528.058.665-.348.193-.494.54-.693.823-.375.532-.391 1.204-.473 1.83-.085.646-.26.85-.876.84-.118-.037-.271-.037-.313-.106-.165-.265-.462-.46-.424-.84.023-.23.049-.495-.042-.69-.151-.326-.385-.616-.601-.909zm-1.767-5.62c-.038.02-.091.01-.139.014-.132-.037-.274-.055-.393-.118-.096-.05-.238-.168-.226-.232.024-.134.11-.327.217-.364.314-.11.649-.195.98-.214.232-.013.473.088.707.153.733.205 1.46.434 2.2.614.18.043.425-.014.589-.112.268-.16.51-.373.735-.594.395-.388.838-.658 1.389-.776.434-.092.417-.107.8.096.138.073.337.143.304.27-.049.189-.178.401-.337.508-.444.299-.933.53-1.378.826-.17.113-.378.33-.379.5 0 .367-.196.525-.46.681-.142.084-.362.087-.373.344 0 .035-.264.121-.357.078-.197-.092-.366-.248-.537-.389-.218-.181-.403-.415-.644-.553-.383-.22-.798-.39-1.206-.565-.478-.205-.957-.435-1.492-.167zm33.721 5.716c.026-.15.125-.286.194-.428.272-.563.332-.582.942-.306.056.025.124.04.163.082.065.068.153.151.16.235.048.53.071 1.062.11 1.594.04.523.361 1.03.091 1.574-.021.044.003.127.031.178.22.395.164.797.038 1.202-.012.04-.042.103-.028.114.23.198.106.415.055.64-.055.237-.143.504-.082.721.084.298-.081.356-.262.428-.167.067-.348.101-.523.15-.554-.035-.745-.181-.739-.564.01-.599.002-1.198.001-1.796l-.002-.438c0-.516.02-1.033-.006-1.548-.01-.223-.062-.429-.007-.667.064-.282.027-.591.006-.887-.007-.098-.155-.2-.142-.284zm70.915 46.703c.392.091.79-.034 1.18.152.252.12.583.062.874.112.477.082.947.23 1.425.267.422.032.876.024 1.272-.103.397-.126.82-.018 1.207-.235.176-.1.47-.03.694.025.07.018.139.247.122.368-.024.178-.077.437-.2.502-.476.248-.971.476-1.484.63a8.68 8.68 0 0 1-1.662.32c-.593.054-1.202.114-1.778-.16-.07-.033-.734-.066-.837-.093-.384-.098-1.184-.18-1.193-.146-.19-.059-.432-.067-.552-.192-.117-.123-.152-.368-.147-.557.014-.477.602-1.002 1.08-.89zm-11.685-24.582c-.081.122.043.39-.044.496-.267.325-.17.696-.13 1.02.037.278.064.504 0 .799-.143.647-.191 1.322-.204 1.986-.01.521.1 1.044.142 1.567.018.23.08.51-.02.686-.174.308-.4.585-.495.937-.098.36-.4.208-.627.234-.208.024-.308-.076-.337-.29-.054-.398-.289-.783-.058-1.199.028-.05-.018-.138-.02-.208-.03-.647-.189-1.292-.006-1.938.033-.117.082-.235.084-.353.001-.091-.104-.195-.085-.274.078-.334.219-.657.273-.994.068-.41.078-.83.103-1.248.036-.61.078-1.22.089-1.83.004-.291-.057-.583-.088-.874 0-.047-.002-.094 0-.14.02-.283.304-.623.592-.68.302-.059.353.151.373.382.001.014.015.033.027.037.333.135.212.372.173.622-.029.182-.005.421.096.563.16.224.376.375.162.699zm-5.274-2.047c.034-.304.297-.562.595-.57.279-.01.587.227.62.507.047.4.08.801.097 1.203.017.395-.005.793.009 1.19.005.141.092.282.09.423-.001.161-.086.321-.09.483-.014.47-.011.94-.003 1.41.006.431-.179.858-.01 1.297.038.1-.027.24-.043.363-.01.074-.037.152-.024.222.091.486.197.968-.091 1.435-.05.08-.025.215-.01.322.03.228.076.453.116.68l-.034.005c0 .094-.01.19.002.282.035.264-.072.342-.335.345-.343.003-1.187-.41-1.327-.706a.303.303 0 0 1-.019-.18c.07-.312.044-.638.22-.937.074-.125-.025-.348-.04-.527-.02-.224-.04-.447-.047-.67-.01-.385-.01-.77-.018-1.154-.003-.123-.038-.247-.029-.37.053-.638.166-1.268.103-1.92-.038-.393.033-.801.083-1.2.034-.27.223-.563.158-.793-.115-.402-.015-.762.027-1.14zM.62 62.963c.855.19 1.735-.203 2.582.12.028.011.062.006.093.005.934-.012 1.868-.03 2.802-.036.925-.006 1.85.001 2.775 0 .508 0 1.016-.005 1.523-.011.398-.005.797-.009 1.195-.024.716-.026 1.432-.06 2.149-.091.288.055.59.01.686.426.073.317.086.258-.18.44-.207.141-.455.217-.628.355-.357.285-.743.118-1.103.178-.407.069-.844-.076-1.266-.066-.805.02-1.609.11-2.415.124-.956.017-1.913-.014-2.87-.022-.322-.003-.645.011-.967.002a82.704 82.704 0 0 1-1.729-.065c-.368-.018-.74-.024-1.104-.081-.549-.086-1.091-.213-1.637-.323-.29-.059-.543-.302-.526-.504.011-.147.438-.467.62-.427zm126.202 7.66a1.47 1.47 0 0 1 .932.206c.17.102.468.674.405.791-.137.254-.3.496-.428.754-.462.93-.943 1.865-.852 2.949.034.408-.182.667-.36.985-.13.235-.322.113-.463.223-.184.143-.575-.078-.568-.317.012-.369.063-.74.143-1.1.069-.31.192-.61.31-.908.12-.306.219-.636.409-.895.187-.257.253-.542.321-.822.077-.314.014-.345-.32-.3-.118.016-.238.025-.357.037-.677-.068-1.105-.396-.995-1.056.036-.22.11-.437.193-.647.089-.23.209-.446.311-.671.225-.496.448-.993.67-1.491.054-.122.086-.221-.106-.276-.524-.15-.863-.54-1.15-.975-.043-.066-.031-.193-.004-.279a47.1 47.1 0 0 1 .464-1.376c.064-.184.102-.41.232-.533.43-.408.487-1.004.79-1.474.282-.435.498-.911.753-1.365.16-.283.467-.288.657-.021.167.234.162.501-.083.75-.402.41-.52.959-.755 1.45-.128.266-.141.593-.29.844-.188.32-.148.651-.193.984-.064.467.303.547.57.73.062.044.107.115.168.162.485.377.557.63.299 1.205-.325.723-.634 1.45-.874 2.206-.073.229.005.249.171.23zM17.727 71.769c-.527.341-1.03.716-1.431 1.211-.144.176-.214.302.047.422.074.035.164.103.186.174.24.79-.181 1.543-.974 1.776-.146.043-.29.102-.426.17-.127.064-.349.094-.266.3.044.111.198.212.324.252.43.14.866.263 1.306.365.27.063.474.199.503.465.034.322-.315.817-.58.865-.53.095-1.062.17-1.592.252-.389-.078-.75-.092-1.135-.213-.691-.22-1.045-.742-1.412-1.264-.14-.197-.141-.5.112-.67.574-.383 1.089-.86 1.748-1.11.247-.094.42-.462.255-.542-.285-.138-.086-.326-.095-.477-.01-.176-.075-.36.142-.537.412-.335.765-.744 1.139-1.125.12-.122.23-.255.345-.383-.169-.06-.335-.129-.506-.18-.345-.1-.627-.313-.661-.663-.025-.255.033-.638.204-.77.451-.35.857-.724 1.219-1.166a.753.753 0 0 1 .752-.256c.1.023.259.181.245.248-.06.295-.105.613-.43.773-.163.081-.328.17-.468.287-.106.088-.171.223-.255.338.165.032.33.067.495.094.02.003.045-.054.07-.057.123-.01.247-.02.37-.016.127.004.253.035.38.033.388-.008.511.104.515.481.003.22-.026.446.02.656.037.17-.03.192-.146.267zM86.256 5.521c-.142-.291-.262-.562-.526-.815a5.476 5.476 0 0 0-1.15-.868c-.598-.329-1.196-.664-1.884-.758-.885-.12-1.773-.223-2.662-.325-.175-.019-.37-.039-.531.016-.231.08-.366.055-.59-.092-.471-.31-.498-.268-.372-.73.1-.363.014-.478-.322-.586-.477-.153-.949-.102-1.431-.066-.478.036-.93.128-1.396.252-.353.093-.706.176-1.03.34-.217.108-.437.243-.593.42-.081.092-.079.323-.025.456.14.347-.183.935-.558.895-.569-.061-1.085.089-1.615.249-.984.298-1.946.655-2.916.988-.63.218-1.295.455-1.986.456a.693.693 0 0 1-.48-.228c-.131-.163-.224-.116-.36-.063a1.952 1.952 0 0 1-.385.112c-.521.086-.968.303-1.322.704-.104.118-.225.208.055.225.147.01.291.037.437.057l.006-.045c.343.038.687.09 1.031.108.26.015.523-.03.783-.018 1.071.053 2.141.123 3.213.175.16.007.322-.065.484-.072.278-.011.558-.014.835.005.579.04 1.156.108 1.736.141.217.013.438-.064.656-.06.514.01 1.04.124 1.537.047.601-.094 1.196-.023 1.79-.075.446-.04.897-.003 1.345 0 .804.003 1.617.087 2.41-.01 1.259-.153 2.49.134 3.737.111.085-.002.17-.01.253-.027.168-.037.175-.09.031-.198a.487.487 0 0 1-.166-.261c-.018-.082.006-.21.061-.263.059-.055.183-.074.27-.058.346.063.686.18 1.033.21.196.016.405-.092.603-.16.018-.005.02-.134-.006-.19zm1.234 1.655c-.176-.004-.352.03-.53.04-.172.01-.345.018-.517.013-.175-.006-.349-.037-.523-.044-1.045-.044-2.092.124-3.137-.038a1.449 1.449 0 0 0-.537.004 5.498 5.498 0 0 1-1.503.115c-.308-.022-.64-.054-.926.035-.634.197-1.282.115-1.92.158-.789.053-1.586-.02-2.38-.04-.249-.006-.54-.1-.736 0-.421.213-.823.064-1.231.056-.426-.01-.85-.06-1.276-.064-1.224-.012-2.45.01-3.674-.021-.79-.02-1.578-.106-2.367-.169-.753-.06-1.506-.128-2.259-.194-.16-.015-.284-.036-.333.198-.026.122-.212.267-.35.298-.595.137-1.221-.345-1.258-.96-.04-.656.282-1.137.753-1.565.455-.413 1.035-.547 1.575-.735.59-.207 1.233-.286 1.872-.156.346.07.672-.015.992-.14.898-.352 1.745-.847 2.726-.964.048-.006.082-.084.132-.106.167-.074.336-.144.508-.202.272-.091.548-.169.82-.257.136-.044.16-.102.178-.279.028-.277.185-.616.4-.78.372-.284.76-.585 1.233-.705.578-.146 1.15-.317 1.722-.477a5.325 5.325 0 0 1 1.877-.18c.712.057 1.406.183 2.103.347.401.095.766.227 1.125.404.092.045.183.105.257.174.336.314.635.697 1.181.58.036-.008.078.005.116.016.734.2 1.467.402 2.2.605.03.008.053.032.08.046.375.197.731.445 1.126.58.735.25 1.276.753 1.839 1.246.335.293.49.704.76 1.026.394.47.503.99.528 1.417-.063.739-.063.734-.646.718zM33.775 14.6c-.26-.475-.668-.851-1.115-1.14a6.84 6.84 0 0 0-1.453-.702c-.84-.29-1.694-.443-2.6-.21-.765.197-1.558.086-2.34.003-.216-.023-.232-.176-.27-.317-.07-.262-.157-.526-.172-.793-.008-.127.105-.3.215-.384.117-.088.164-.149.022-.202-.465-.178-.886-.456-1.395-.54-.43-.071-.844-.23-1.266-.351l-.018.064c-.308-.061-.62-.103-.92-.188-.46-.13-.829.104-1.216.269-.06.025-.091.134-.121.21-.132.337-.221.368-.603.327a1.039 1.039 0 0 0-.519.095c-.3.139-.58.221-.892.028-.326-.201-.657-.153-1.018-.038-.594.19-1.027.637-1.57.905-.14.07-.228.246-.348.363-.45.438-.906.869-1.353 1.31-.269.265-.238.354.132.493.099.038.198.085.285.146.12.086.167.201.012.295-.167.1-.338.208-.522.258-.169.045-.294.08-.41.241-.17.236-.308.49-.539.698-.189.17-.169.527-.062.812.02.053.036.124.018.173-.064.172-.064.19.073.15.312-.09.673.139.953-.148.754.184 1.499-.048 2.243-.086.732-.037 1.463.122 2.2-.057.353-.086.758.054 1.14.073.588.03 1.177.06 1.765.058.824-.004 1.648-.05 2.473-.056.794-.005 1.589.029 2.383.023.553-.004 1.105-.049 1.658-.07.443-.016.887-.023 1.33-.037.106-.003.212-.024.319-.032.234-.017.472-.194.704.017.015.013.058-.001.088-.007.759-.142 1.526-.255 2.273-.445.236-.06.462-.296.618-.507.19-.257-.071-.5-.182-.701zm2.038 1.712c-.025.345-.27.408-.536.44-.46.056-.92.119-1.382.145-.769.043-1.534.211-2.307.09-.278-.045-.58.292-.836-.057-.003-.005-.047.026-.075.032-.136.034-.272.08-.411.095-.273.028-.549.05-.823.054-.542.01-1.071.198-1.62.109-.092-.015-.19-.035-.28-.019-.86.16-1.73.113-2.597.115-.341 0-.683.052-1.025.06-.534.011-1.07-.001-1.605.006-.73.01-1.46.03-2.188.045-.876.018-1.757-.01-2.627.072-.594.056-1.188.022-1.787.115-.716.111-1.464.024-2.198.024-.178 0-.311.038-.237.273.078.249-.056.29-.281.351-.64.17-1.148-.119-1.618-.448-.42-.295-.617-.753-.584-1.327.025-.082.033-.216.097-.314.319-.487.672-.954.972-1.452.146-.242.21-.536.301-.81.034-.1.005-.247.068-.312.48-.498.71-1.187 1.275-1.622.399-.309.767-.652 1.23-.873.35-.167.69-.363 1.016-.575.574-.373 1.2-.61 1.857-.779.28-.072.56-.148.832-.245.392-.141.41-.185.373-.606-.006-.068-.032-.152-.002-.204.201-.352.562-.475.92-.497.49-.032.984.026 1.476.04.14.004.283-.039.417-.017.41.07.816.171 1.227.24.288.047.565.072.841.219.317.169.688.248 1.044.325.613.132 1.233.26 1.783.56.568.308 1.199.505 1.653 1.032.212.245.585.396.913.486.409.113.834.104 1.248.29.585.262 1.228.393 1.842.59.158.05.299.154.456.208.296.103.572.228.797.457.173.176.337.403.551.486.629.244.946.83 1.427 1.233.247.206.36.57.545.856.192.298.118.586-.012.875-.037.082-.124.153-.13.234zm88.36-.428c-.238-.384-.491-.764-.775-1.117-.331-.41-.826-.559-1.309-.697-.797-.23-1.626-.364-2.438-.224-.482.083-.98.15-1.452.45-.484.309-1.103.54-1.733.453-.17-.023-.4-.155-.462-.298-.087-.199-.072-.503.164-.616.33-.157.45-.43.415-.726-.042-.354-.328-.627-.622-.774a13.419 13.419 0 0 0-1.828-.74c-.253-.083-.557-.013-.838-.013v-.008c-.423 0-.847-.016-1.27.009-.138.008-.273.119-.407.187-.864.44-1.662.997-2.309 1.704-.298.325-.607.778-.55 1.317a.284.284 0 0 1-.044.155c-.045.08-.135.148-.147.23-.061.39-.262.517-.68.44-.32-.06-.608-.125-.652-.528-.005-.052-.125-.134-.187-.13-.73.04-1.478-.197-2.192.15a2.508 2.508 0 0 1-.733.208c-.29.04-.315.29-.298.441.035.306-.071.664.258.907.118.087-.058.546-.25.716-.099.09-.2.177-.3.265.135.02.27.056.407.056.457 0 .913-.013 1.37-.02.219-.003.46-.061.653.01.507.19.978-.04 1.465-.057.087-.003.188-.044.26-.013.438.179.854.154 1.3-.001.215-.075.486.025.731.025.31 0 .62-.03.93-.032 1.009-.008 2.016-.009 3.024-.014.837-.004 1.674-.006 2.51-.018.62-.01 1.24-.024 1.86-.054.527-.026 1.052-.088 1.578-.116.386-.02.775-.012 1.161-.015.545-.007 1.116.09 1.625-.047.487-.13.964-.033 1.437-.13.199-.041.198-.125.215-.274.027-.226.096-.446.128-.671.018-.13.046-.293-.014-.39zm3.238 2.635c-.453.02-.91.032-1.36-.003-.43-.032-.803.209-1.26.138-.527-.082-1.088.086-1.627.046-.904-.07-1.794.156-2.701.074-.22-.02-.515-.047-.695.009-.355.11-.706.05-1.05.091-.722.085-1.46.026-2.193.026-1.167 0-2.335-.007-3.503.002-.989.008-1.968-.218-2.96-.098-.472.056-.939-.141-1.422-.012-.234.062-.498.017-.749.006-.548-.024-1.095-.07-1.643-.083-.639-.015-1.278-.025-1.875-.283-.214-.092-.402-.126-.615-.009-.266.146-.49.134-.655-.18-.045-.084-.242-.167-.325-.136-.154.059-.3.184-.406.314-.31.38-.707.364-1.127.292a4.199 4.199 0 0 0-.388-.042c-.36-.027-.722-.046-1.081-.082-.045-.004-.11-.08-.12-.132-.039-.207-.143-.463-.062-.613.077-.144.357-.25.544-.245.328.01.553-.144.79-.316.134-.097.304-.157.41-.276.222-.25.666-.385.493-.905.046-.26.096-.563.154-.864.028-.147.029-.324.113-.431.589-.744 1.42-.949 2.313-.995.28-.014.561-.028.84-.013.626.036 1.284-.104 1.849.301.14.1.111.002.152-.085.157-.328.346-.639.503-.967.198-.415.56-.686.859-1.014.156-.172.38-.29.503-.478.258-.39.651-.555 1.041-.738.135-.063.274-.12.415-.168.5-.168.992-.359 1.538-.313.134.011.273-.05.41-.047.231.005.463.03.693.057.086.01.17.083.252.077.714-.05 1.369.183 2.02.424.237.088.458.223.684.34.278.143.682.223.8.45.183.353.607.539.635.993.008.114.128.313.364.115.162-.136.413-.228.625-.23.634-.005 1.269.039 1.902.077.232.013.462.062.693.1.363.06.742.08 1.085.2.546.192 1.118.336 1.598.692.255.189.564.316.788.533.492.478.726 1.135 1.08 1.709.054.088.063.203.098.304.09.254.23.502.26.763.03.253.244.224.307.196.42-.18.711.092 1.024.263.22.12.289.431.578.487.028.006.057.13.047.193-.047.3-.251.468-.643.486zm-10.573 45.458c.05.007.137-.036.157-.08.087-.193.267.036.362-.089.137.257.197.055.322-.025.114-.073.711.093.862.096.144.003.289-.02.433-.022.224-.006.45.003.673-.01.327-.021.653-.06.981-.085.462-.035.924-.058 1.385-.102.058-.006.146-.101.154-.163.075-.647.136-1.295.201-1.943.004-.031.013-.061.018-.092.118-.662.243-1.324.352-1.988.075-.455.167-.912.18-1.37.011-.45.193-.84.302-1.256.059-.22.045-.464.12-.677.11-.314.294-.603.405-.917.09-.252.191-.454.413-.636.21-.171.46-.44.348-.753a4.716 4.716 0 0 1-.278-1.441c-.032-.773-.27-1.53-.177-2.318.054-.461.07-.927.095-1.39.015-.27-.038-.553.032-.805.145-.524.024-1.075.221-1.592.108-.282.271-.643.178-.878-.138-.347.02-.629.081-.887.17-.715.459-1.403.714-2.097.209-.566.436-1.125.655-1.688.027-.07.084-.143.079-.212-.044-.567.18-1.091.256-1.638a1.128 1.128 0 0 0-.007-.357c-.098-.525-.242-1.044-.3-1.573-.038-.348.012-.715.077-1.064.097-.524.243-1.039.366-1.557.174-.728.292-1.468.623-2.153.152-.317.224-.672.332-1.01l-.013.014-.007-.012.02-.001c.18-.136.148-.371.247-.54.135-.23.373-.41.472-.652.212-.516.681-.668 1.117-.842.143-.058.374.154.563.149.188-.005.315-.222.584-.096.534.249 1.158.322 1.525.868.055.083.153.135.221.21.173.186.418.352.492.573.175.522.273 1.072.393 1.612.15.682.293 1.367.439 2.05.105.49.275.976.3 1.469.038.745.191 1.461.345 2.184.08.374.114.763.122 1.146.008.355-.142.737-.053 1.061.187.683-.059 1.335-.03 2.004.03.67.071 1.36-.172 2.015-.013.033.017.084.032.126.048.132.132.262.14.396.045.707.06 1.416.107 2.123.016.242.082.482.141.72.1.397.215.792.32 1.188.11.411.192.831.328 1.232.137.402.316.79.495 1.175.426.918.346 1.848.077 2.78-.114.394-.29.772-.392 1.17-.279 1.087-.515 2.184-.506 3.317l.01 1.274c0 .189-.076.429.013.557.235.343.134.631.017.973-.105.304-.27.65 0 .967.284.331.602.638.852.993.105.149.2.183.336.161.49-.079.96.088 1.442.102.69.018 1.379.067 2.068.088 1.088.034 2.177.073 3.266.078.686.004 1.373-.062 2.06-.072.975-.014 1.95-.013 2.924 0 .39.006.781.058 1.17.096.214.021.425.076.638.085.415.017.527.151.386.535-.09.248-.23.479-.516.532-.363.067-.727.137-1.094.154-.375.016-.754-.045-1.128.028-.153.03-1.126-.168-1.35-.103-.533.155-1.06.24-1.608.091-.123.195-.735.068-.88.062-.475-.02-.95-.037-1.426-.057-.19-.008-.38-.026-.569-.03-.348-.007-.695-.002-1.043-.013-.34-.01-.68-.046-1.018-.04-.064 0-.65-.025-.826-.026-.451-.003-.903.007-1.354-.004-.235-.006-.488.004-.697-.082-.187-.078-.14-.006-.176.109-.115.378.43.595.225.985.315.67.194 1.398.179 2.086-.014.625-.266 1.247-.436 1.864-.088.32-.299.622-.319.942-.032.5-.282.917-.431 1.361-.254.753-.664 1.453-1.001 2.178-.032.068-.056.203-.021.232.49.406.498.961.495 1.523-.002.345-.023.692.006 1.034.03.352-.112.637-.289.908-.088.135-.269.213-.342.352-.137.26-.345.36-.608.446-.284.092-.54.27-.82.382-.114.046-.29.072-.384.016-.256-.152-.533-.316-.703-.547-.106-.144-.072-.431-.019-.632.023-.087.25-.132.391-.17.086-.022.207-.024.274.022.216.15.352.012.446-.132.116-.176.335-.339.193-.607-.013-.025.012-.097.038-.11.432-.218.28-.66.246-.945-.039-.322-.1-.65-.124-.981a3.642 3.642 0 0 0-.133-.717c-.076-.267-.116-.497.173-.675a.474.474 0 0 0 .204-.297c.077-.602.588-1.07.519-1.714-.005-.045.04-.12.083-.14.178-.086.223-.187.114-.37-.03-.05.045-.164.074-.248.061-.17.14-.336.183-.51.06-.246.088-.498.138-.745.11-.54.281-1.075.327-1.62.07-.851-.059-1.691-.348-2.5-.066-.185-.165-.363-.193-.553-.048-.332-.13-.619-.474-.763-.044-.017-.09-.151-.067-.19.185-.301-.03-.458-.208-.635-.226-.225-.458-.446-.669-.686-.057-.065-.061-.19-.061-.29 0-.088.032-.179.062-.264.062-.175-.16-.424.192-.536.187-.06.238-.36.536-.371.215-.007.306-.207.214-.444-.126-.324-.26-.646-.35-.98-.21-.782-.458-1.56-.572-2.357-.076-.541-.011-1.124.096-1.667.175-.885.431-1.754.617-2.64.078-.37.238-.671.162-1.112-.074-.434-.1-.905-.357-1.224-.395-.491-.392-1.093-.618-1.625-.181-.43-.247-.912-.339-1.376-.122-.616-.245-1.233-.32-1.855-.05-.421-.015-.853-.023-1.28-.009-.494.008-.992-.045-1.482-.034-.318.13-.583.136-.878.013-.65.012-1.299.012-1.948 0-.994.04-1.99-.182-2.973-.087-.387-.133-.783-.192-1.175-.074-.481-.128-.966-.217-1.443a30.49 30.49 0 0 0-.35-1.593 8.17 8.17 0 0 0-.273-.89c-.077-.208-.206-.397-.286-.604-.2-.522-.478-.961-1.043-1.151-.17-.058-.224-.034-.288.154-.225.661-.543 1.294-.72 1.966-.163.62-.441 1.225-.395 1.892.003.058-.03.118-.041.177-.09.463-.36.902-.153 1.405.049.119.053.318-.016.41-.167.224-.075.425-.019.635.051.19.117.378.186.564.122.327-.068.712.191 1.014.004.005-.04.044-.053.073-.143.294-.16.582.02.874.036.055.027.17-.008.232a65.092 65.092 0 0 1-.868 1.513c-.107.179-.28.329-.348.519-.242.665-.489 1.333-.663 2.019-.173.68-.261 1.383-.387 2.076-.03.165-.098.334-.085.496.046.539-.11 1.051-.172 1.576-.073.612-.14 1.225-.211 1.836-.025.214-.06.426-.084.64-.042.389-.1.81-.059 1.166.085.75.084 1.543.466 2.243.035.065.01.24-.039.263-.339.172-.506.425-.48.812.005.063-.055.138-.098.199a4.634 4.634 0 0 0-.772 2.064c-.104.816-.457 1.58-.437 2.411-.394.608.021 1.368-.369 1.976.094.414.069.82.041 1.246-.035.54.219 1.081.16 1.655-.034.315.071.643.067.965-.006.45-.062.9-.081 1.35-.005.117.012.263.08.349.287.367.23.71-.013 1.065-.042.061-.032.163-.08.212-.338.342.02.992-.545 1.238-.03.013-.006.149-.01.227-.006.093.005.193-.026.277-.238.648-.237.647-.172 1.193.008.069-.038.145-.063.216-.036.101-.103.2-.108.3-.04.782-.082 1.564-.091 2.346-.005.431.054.864.085 1.296.008.108.011.217.033.323.079.392.16.783.25 1.173.085.371.063.79.54.966.198.073.173.404-.041.484-.16.06-.222.114-.234.279-.003.046-.123.1-.198.123-.42.123-.653-.236-.971-.381-.3-.137-.317-.477-.515-.688a1.637 1.637 0 0 1-.283-.38c-.37-.746-.447-1.564-.551-2.374-.017-.132-.107-.388-.093-.48a.214.214 0 0 1-.011-.017c-.113-.222-.125-.437.004-.662a.597.597 0 0 0 .091-.303c-.021-.443.04-.876.085-1.315.064-.624.061-1.22.335-1.838.239-.537.302-1.168.623-1.693.43-.7.402-1.586.915-2.252.027-.034.016-.145-.016-.17-.402-.319-.322-.884-.642-1.25-.101-.115-.065-.407-.167-.453-.139-.063-.348.05-.528.054-.455.011-.911-.003-1.367.01a.636.636 0 0 0-.333.116c-.326.237-.667.298-1.047.157-.376-.14-.744-.22-1.162-.103-.464.129-.909-.057-1.316-.282-.175-.096-.323-.217-.203-.489.112-.255.119-.565.523-.506zm-94.869.096l.41.182-.46-.211a.52.52 0 0 0 .05.029zM8.266 74.836c.156-.659.425-1.262.756-1.848a5.39 5.39 0 0 1 2.638-2.373c.33-.142.738-.248.746-.736.01-.598-.062-1.204.213-1.772.058-.122.055-.275.118-.394.436-.82.7-1.728 1.266-2.48.31-.414.565-.901.957-1.214.448-.356 1.016-.565 1.54-.818.233-.112.483-.21.735-.255.41-.072.832-.145 1.245-.13a6.029 6.029 0 0 1 1.804.362c.221.079.424.143.575.317.233.267.498.454.87.461.553.024 1.487.612 1.764.795l.096.043c.127.208.25.418.38.625.149.242.382.463.437.724.117.555.157 1.129.2 1.696.016.194-.06.394-.083.592-.02.187.073.288.245.188.566-.326 1.164-.202 1.757-.15.09.007.178.073.262.12.711.404.902 1.13 1.106 1.835.089.306.052.655.171.943.064.151.07.29.012.365-.222.29-.163.614-.178.934-.014.339.003.692-.088 1.012-.093.324.098.651-.072.958-.01.02.05.116.082.12.47.04.697.433.992.707.188.175.354.43.41.676.115.498.202 1.013-.008 1.522-.156.38-.222.813-.443 1.145-.457.688-1.236.929-1.961 1.216-.154.06-.36.048-.525.007-.788-.195-1.587-.196-2.389-.188a1.185 1.185 0 0 1-.409-.052c-.19-.068-.258-.143-.064-.347.346-.365.816-.418 1.24-.558.376-.124.798-.095 1.19-.176.339-.07.666-.193.996-.303.406-.135.434-.567.642-.856.2-.279.254-.583.151-.957-.086-.315-.204-.198-.331-.119-.079.048-.116.167-.164.258-.093.177-.184.356-.27.537-.13.278-.426.277-.622.246-.185-.03-.327-.302-.222-.52.159-.331-.01-.635-.01-.951 0-.41.04-.825-.008-1.228-.052-.432.238-.795.132-1.256-.094-.403.065-.858.056-1.29-.011-.539-.222-1.041-.356-1.558-.084-.328-.401-.247-.564-.458-.254-.33-.498-.212-.683.175-.132.275-.305.587-.549.738-.364.224-.807.07-1.215.012-.038-.006-.095-.089-.092-.131.017-.244-.142-.245-.304-.23-.201.018-.257-.062-.275-.264-.033-.38.096-.723.302-.994.287-.38.494-.743.367-1.233a.412.412 0 0 1 .021-.276c.088-.16.088-.286-.049-.417-.039-.037-.079-.141-.061-.16.239-.254-.006-.452-.066-.673-.09-.334-.234-.629-.501-.861-.625-.541-1.213-1.11-1.916-1.576-.606-.402-1.17-.333-1.78-.297-.151.01-.296.115-.446.172-.258.098-.516.198-.777.285-.383.127-.747.299-1.048.564-.346.305-.628.662-.894 1.05-.652.946-1.077 1.994-1.5 3.048-.13.321-.22.658-.345.983-.286.743-.261 1.386.414 1.705.07.033.161.059.195.116.08.137.199.3.182.437-.029.223-.255.182-.423.17-.553-.04-1.007-.308-1.38-.687-.153-.154-.26-.178-.431-.106-.48.202-.879.488-1.153.95-.222.373-.414.765-.628 1.14-.34.599-.573 1.265-.8 1.921-.163.474-.09 1.004.212 1.371.544.662 1.196 1.233 1.781 1.862.253.271.56.345.889.467.501.185.995.216 1.504.237.368.014.743-.033 1.105.013.494.063.976.243 1.469.27.331.018.602.149.894.244.29.094.569.22.859.313.251.08.534.076.737-.075.247-.186.425-.034.497.107.112.215-.097.313-.277.417-.19.108-.47.269-.486.429-.052.534-.445.584-.811.733-.56.227-1.094-.03-1.638-.053-.658-.027-1.31-.157-1.966-.234-.598-.07-1.22-.054-1.793-.216a5.436 5.436 0 0 1-1.652-.779c-.453-.322-.84-.766-.996-1.357-.102-.39-.19-.823-.722-.883-.05-.006-.093-.078-.138-.122-.332-.335-.69-.606-.894-1.098-.19-.46-.192-.882-.136-1.31.058-.446.275-.87.38-1.314z" opacity=".2"/>
</svg>
