<svg width="14" height="14" viewBox="0 0 14 14" fill="none" xmlns="http://www.w3.org/2000/svg">
<path d="M7 14C3.14008 14 0 10.8599 0 7C0 3.14008 3.14008 0 7 0C10.8599 0 14 3.14008 14 7C14 10.8599 10.8599 14 7 14ZM7 0.583333C3.46208 0.583333 0.583333 3.46208 0.583333 7C0.583333 10.5379 3.46208 13.4167 7 13.4167C10.5379 13.4167 13.4167 10.5379 13.4167 7C13.4167 3.46208 10.5379 0.583333 7 0.583333Z" fill="#3E3F42"/>
<path d="M7.00008 7.87492C5.47233 7.87492 4.22925 6.63183 4.22925 5.10409C4.22925 3.57634 5.47233 2.33325 7.00008 2.33325C8.52783 2.33325 9.77092 3.57634 9.77092 5.10409C9.77092 6.63183 8.52783 7.87492 7.00008 7.87492ZM7.00008 2.91659C5.79375 2.91659 4.81258 3.89775 4.81258 5.10409C4.81258 6.31042 5.79375 7.29158 7.00008 7.29158C8.20641 7.29158 9.18758 6.31042 9.18758 5.10409C9.18758 3.89775 8.20641 2.91659 7.00008 2.91659Z" fill="#3E3F42"/>
<path d="M3.31514 11.0834C3.27139 11.0834 3.22939 11.0741 3.1903 11.0548C3.04505 10.986 2.98322 10.8116 3.05205 10.6663C3.48314 9.75517 4.22164 9.01608 5.1328 8.58558C5.72022 8.30792 6.34672 8.16675 6.99364 8.16675C8.67772 8.16675 10.2306 9.14791 10.9492 10.6669C11.0175 10.8127 10.9556 10.9866 10.8104 11.0554C10.7701 11.0741 10.7281 11.0834 10.685 11.0834C10.5724 11.0834 10.4691 11.0181 10.4213 10.9166C9.79889 9.60058 8.45314 8.75008 6.99364 8.75008C6.43364 8.75008 5.89114 8.872 5.38189 9.1135C4.59264 9.48683 3.95214 10.1273 3.5788 10.9166C3.53097 11.0181 3.42714 11.0834 3.31514 11.0834Z" fill="#3E3F42"/>
</svg>
